<!DOCTYPE svg PUBLIC "-//W3C//DTD SVG 1.1//EN" "http://www.w3.org/Graphics/SVG/1.1/DTD/svg11.dtd">
<!-- Uploaded to: SVG Repo, www.svgrepo.com, Transformed by: SVG Repo Mixer Tools -->
<svg width="80px" height="80px" viewBox="-3.2 -3.2 38.40 38.40" id="OBJECT" xmlns="http://www.w3.org/2000/svg" fill="#266c97" stroke="#266c97" stroke-width="0.8960000000000001" transform="rotate(0)matrix(1, 0, 0, 1, 0, 0)">
<g id="SVGRepo_bgCarrier" stroke-width="0"/>
<g id="SVGRepo_tracerCarrier" stroke-linecap="round" stroke-linejoin="round" stroke="#CCCCCC" stroke-width="3.84">
<defs>
<style>.cls-1{fill:#ffffff;}</style>
</defs>
<title/>
<path d="M9.66,23.34A1,1,0,0,1,9,23.05a1,1,0,0,1,0-1.41l3.27-3.28a1,1,0,0,1,1.42,1.42l-3.28,3.27A1,1,0,0,1,9.66,23.34Z"/>
<circle class="cls-1" cx="20" cy="12" r="11"/>
<path d="M20,19a7,7,0,1,1,7-7A7,7,0,0,1,20,19ZM20,7a5,5,0,1,0,5,5A5,5,0,0,0,20,7Z"/>
<path d="M20,19c-2.23,0-3.4-3.52-3.4-7S17.77,5,20,5s3.4,3.52,3.4,7S22.23,19,20,19ZM20,7c-.4.06-1.4,1.9-1.4,5s1,4.94,1.4,5,1.4-1.9,1.4-5S20.4,7.06,20,7Z"/>
<path d="M11.78,23.05,9,20.22a1,1,0,0,0-1.42,0L1.88,25.88a3,3,0,0,0,0,4.24h0a3,3,0,0,0,4.24,0l5.66-5.66a1,1,0,0,0,.29-.7A1,1,0,0,0,11.78,23.05Z"/>
<path class="cls-1" d="M11.78,25.46a1,1,0,0,1-.71-.29L6.83,20.93a1,1,0,0,1,0-1.42,1,1,0,0,1,1.41,0l4.25,4.25a1,1,0,0,1-.71,1.7Z"/>
<path d="M26,13H14a1,1,0,0,1,0-2H26a1,1,0,0,1,0,2Z"/>
</g>
<g id="SVGRepo_iconCarrier">
<defs>
<style>.cls-1{fill:#ffffff;}</style>
</defs>
<title/>
<path d="M9.66,23.34A1,1,0,0,1,9,23.05a1,1,0,0,1,0-1.41l3.27-3.28a1,1,0,0,1,1.42,1.42l-3.28,3.27A1,1,0,0,1,9.66,23.34Z"/>
<circle class="cls-1" cx="20" cy="12" r="11"/>
<path d="M20,19a7,7,0,1,1,7-7A7,7,0,0,1,20,19ZM20,7a5,5,0,1,0,5,5A5,5,0,0,0,20,7Z"/>
<path d="M20,19c-2.23,0-3.4-3.52-3.4-7S17.77,5,20,5s3.4,3.52,3.4,7S22.23,19,20,19ZM20,7c-.4.06-1.4,1.9-1.4,5s1,4.94,1.4,5,1.4-1.9,1.4-5S20.4,7.06,20,7Z"/>
<path d="M11.78,23.05,9,20.22a1,1,0,0,0-1.42,0L1.88,25.88a3,3,0,0,0,0,4.24h0a3,3,0,0,0,4.24,0l5.66-5.66a1,1,0,0,0,.29-.7A1,1,0,0,0,11.78,23.05Z"/>
<path class="cls-1" d="M11.78,25.46a1,1,0,0,1-.71-.29L6.83,20.93a1,1,0,0,1,0-1.42,1,1,0,0,1,1.41,0l4.25,4.25a1,1,0,0,1-.71,1.7Z"/>
<path d="M26,13H14a1,1,0,0,1,0-2H26a1,1,0,0,1,0,2Z"/>
</g>
</svg>